<svg xmlns="http://www.w3.org/2000/svg" x="0px" y="0px" width="24" height="24 auto" viewBox="0,0,256,256"
style="fill: rgba(255, 255, 255, 1);">
<g fill="#ffffff" fill-rule="nonzero" stroke="none" stroke-width="1" stroke-linecap="butt" stroke-linejoin="miter" stroke-miterlimit="10" stroke-dasharray="" stroke-dashoffset="0" font-family="none" font-weight="none" font-size="none" text-anchor="none" style="mix-blend-mode: normal"><g transform="scale(5.33333,5.33333)"><path d="M31.5,5c-6.8857,0 -12.5,5.6143 -12.5,12.5c0,1.4068 0.29582,2.73409 0.72656,3.99609l-12.11523,12.11523c-0.00065,0 -0.0013,0 -0.00195,0c-2.13534,2.13534 -2.13393,5.64282 0.00195,7.77734c1.06769,1.06633 2.48284,1.61133 3.88867,1.61133c1.40584,0 2.82098,-0.545 3.88867,-1.61133c0.00065,0 0.0013,0 0.00195,0l12.11328,-12.11523c1.26196,0.43088 2.59029,0.72656 3.99805,0.72656c6.8857,0 12.5,-5.6143 12.5,-12.5c0,-2.00091 -0.48543,-3.89067 -1.31641,-5.56055c-0.21515,-0.43164 -0.6247,-0.73351 -1.10067,-0.81129c-0.47597,-0.07778 -0.96031,0.07802 -1.30167,0.41872l-6.86914,6.86719c-0.39622,0.39622 -0.89976,0.58594 -1.41406,0.58594c-0.5143,0 -1.01784,-0.18971 -1.41406,-0.58594c-0.79298,-0.7924 -0.79298,-2.03377 0,-2.82617c0,-0.00065 0,-0.0013 0,-0.00195l6.86719,-6.86719c0.3407,-0.34136 0.4965,-0.8257 0.41872,-1.30167c-0.07778,-0.47597 -0.37966,-0.88552 -0.81129,-1.10067c-1.67026,-0.8323 -3.55964,-1.31641 -5.56055,-1.31641zM31.5,8c0.74942,0 1.4746,0.09151 2.17188,0.25781l-5.20703,5.20703c-1.94102,1.9396 -1.94102,5.13071 0,7.07031c0.96978,0.96978 2.25746,1.46484 3.53516,1.46484c1.2777,0 2.56538,-0.49507 3.53516,-1.46484l5.20898,-5.20703c0.16623,0.6974 0.25781,1.42246 0.25781,2.17188c0,5.2643 -4.2357,9.5 -9.5,9.5c-1.3589,0 -2.64217,-0.28855 -3.8125,-0.80273c-0.56608,-0.24873 -1.22678,-0.12465 -1.66406,0.3125l-12.75781,12.75781c-0.49609,0.49472 -1.12602,0.73242 -1.76758,0.73242c-0.64216,0 -1.27322,-0.23675 -1.76953,-0.73242c-0.98811,-0.98748 -0.98671,-2.54649 0.00195,-3.53516l12.75781,-12.75586c0.43715,-0.43728 0.56123,-1.09798 0.3125,-1.66406c-0.51407,-1.17008 -0.80273,-2.45474 -0.80273,-3.8125c0,-5.2643 4.2357,-9.5 9.5,-9.5z"></path></g></g>
</svg>